<?xml version="1.0" standalone="no"?>
<!DOCTYPE svg PUBLIC "-//W3C//DTD SVG 20010904//EN"
 "http://www.w3.org/TR/2001/REC-SVG-20010904/DTD/svg10.dtd">
<svg version="1.0" xmlns="http://www.w3.org/2000/svg"
 width="547.000000pt" height="295.000000pt" viewBox="0 0 547.000000 295.000000"
 preserveAspectRatio="xMidYMid meet">

<g transform="translate(0.000000,295.000000) scale(0.100000,-0.100000)"
fill="#000000" stroke="none">
<path d="M3838 2917 c-71 -40 -148 -112 -172 -163 -11 -22 -23 -48 -29 -59
-58 -114 -43 -340 31 -459 17 -29 18 -29 103 -27 47 1 108 -3 135 -10 48 -12
144 -55 144 -64 0 -3 -18 4 -40 15 -55 28 -154 50 -228 50 l-64 0 7 -32 c4
-22 25 -50 60 -83 106 -99 168 -150 172 -139 3 8 30 10 89 6 l85 -5 -7 44 c-4
24 -13 59 -20 77 -7 18 -9 30 -4 27 6 -4 10 8 10 28 0 147 71 284 199 385 20
16 23 24 17 55 -4 20 -13 43 -21 51 -8 8 -12 21 -9 29 8 23 -58 158 -102 207
-22 24 -59 56 -83 72 -40 25 -54 28 -130 28 -78 0 -91 -3 -143 -33z m-38 -148
c0 -7 8 -18 18 -25 16 -13 16 -13 0 -14 -10 0 -18 -4 -18 -8 0 -4 -7 -58 -16
-120 -15 -112 -36 -182 -54 -182 -42 0 -54 143 -20 240 14 41 16 57 7 62 -8 5
-7 8 4 8 8 0 26 11 39 25 25 27 40 32 40 14z m65 -29 c-3 -5 -10 -10 -16 -10
-5 0 -9 5 -9 10 0 6 7 10 16 10 8 0 12 -4 9 -10z m45 6 c0 -11 -19 -15 -25 -6
-3 5 1 10 9 10 9 0 16 -2 16 -4z m40 -6 c0 -5 -4 -10 -10 -10 -5 0 -10 5 -10
10 0 6 5 10 10 10 6 0 10 -4 10 -10z m45 0 c3 -5 -1 -10 -9 -10 -9 0 -16 5
-16 10 0 6 4 10 9 10 6 0 13 -4 16 -10z m45 -4 c0 -11 -19 -15 -25 -6 -3 5 1
10 9 10 9 0 16 -2 16 -4z m-350 -16 c0 -5 -4 -10 -10 -10 -5 0 -10 5 -10 10 0
6 5 10 10 10 6 0 10 -4 10 -10z m387 4 c-3 -3 -12 -4 -19 -1 -8 3 -5 6 6 6 11
1 17 -2 13 -5z m93 -18 c0 -11 -19 -15 -25 -6 -3 5 1 10 9 10 9 0 16 -2 16 -4z
m35 -16 c3 -5 -1 -10 -9 -10 -9 0 -16 5 -16 10 0 6 4 10 9 10 6 0 13 -4 16
-10z m40 -20 c3 -5 -1 -10 -9 -10 -9 0 -16 5 -16 10 0 6 4 10 9 10 6 0 13 -4
16 -10z m35 -20 c0 -5 -4 -10 -10 -10 -5 0 -10 5 -10 10 0 6 5 10 10 10 6 0
10 -4 10 -10z m-483 -306 c8 -22 -10 -49 -32 -49 -10 0 -22 7 -28 16 -15 24
-1 49 28 49 15 0 28 -7 32 -16z"/>
<path d="M1286 2475 c-58 -20 -86 -44 -136 -116 l-45 -64 0 -150 c0 -149 1
-151 38 -252 21 -57 37 -113 35 -125 -3 -20 -8 -15 -36 28 -18 28 -41 75 -51
105 -11 30 -20 49 -20 42 -2 -27 42 -123 78 -172 36 -48 38 -54 30 -92 -5 -22
-27 -75 -49 -117 -41 -81 -70 -174 -70 -227 0 -55 -14 -57 -43 -4 -34 60 -126
160 -182 199 -60 42 -136 64 -189 56 -85 -13 -142 -104 -160 -258 -15 -119 31
-309 99 -412 52 -78 58 -82 94 -55 29 21 31 21 55 5 27 -17 33 -45 16 -75 -7
-14 -4 -23 11 -37 33 -30 46 -64 68 -168 19 -93 62 -197 100 -240 24 -28 87
-56 127 -58 l36 -1 -6 -79 c-8 -108 14 -101 34 10 12 67 21 87 48 115 17 18
32 38 32 44 0 13 33 23 82 23 l37 0 3 -137 c3 -115 6 -138 18 -138 12 0 15 23
18 137 l3 138 132 0 133 0 30 -131 c30 -136 45 -172 62 -154 7 7 0 55 -19 140
-15 72 -29 136 -29 143 0 7 15 12 40 12 27 0 43 5 46 15 3 8 -2 68 -12 134
l-17 120 51 55 c48 53 112 168 112 201 0 24 -18 17 -32 -12 -10 -21 -20 -28
-43 -28 -34 0 -55 31 -55 80 1 27 8 50 53 169 15 41 47 65 86 66 23 0 23 2 16
58 -3 31 -18 89 -31 128 -13 39 -24 85 -24 102 0 25 -4 32 -20 32 -11 0 -20 4
-20 8 0 5 63 16 140 26 77 10 140 21 140 23 0 3 -21 3 -47 -1 -27 -4 -90 -11
-142 -16 l-94 -10 -66 70 c-36 38 -65 70 -64 70 2 0 -7 19 -20 43 -20 39 -22
53 -19 194 4 217 -17 318 -89 427 -32 47 -95 99 -110 90 -5 -3 -17 4 -29 16
-24 24 -76 26 -134 5z m124 -25 c0 -5 -5 -10 -11 -10 -5 0 -7 5 -4 10 3 6 8
10 11 10 2 0 4 -4 4 -10z m-80 -34 c0 -3 -4 -8 -10 -11 -5 -3 -10 -1 -10 4 0
6 5 11 10 11 6 0 10 -2 10 -4z m-70 -56 c0 -5 -5 -10 -11 -10 -5 0 -7 5 -4 10
3 6 8 10 11 10 2 0 4 -4 4 -10z m-30 -30 c0 -5 -5 -10 -11 -10 -5 0 -7 5 -4
10 3 6 8 10 11 10 2 0 4 -4 4 -10z m-20 -34 c0 -3 -4 -8 -10 -11 -5 -3 -10 -1
-10 4 0 6 5 11 10 11 6 0 10 -2 10 -4z m-30 -36 c0 -5 -5 -10 -11 -10 -5 0 -7
5 -4 10 3 6 8 10 11 10 2 0 4 -4 4 -10z m-30 -124 c0 -3 -4 -8 -10 -11 -5 -3
-10 -1 -10 4 0 6 5 11 10 11 6 0 10 -2 10 -4z m30 -216 c0 -5 -2 -10 -4 -10
-3 0 -8 5 -11 10 -3 6 -1 10 4 10 6 0 11 -4 11 -10z m20 -40 c0 -5 -2 -10 -4
-10 -3 0 -8 5 -11 10 -3 6 -1 10 4 10 6 0 11 -4 11 -10z m195 -160 c3 -5 1
-10 -4 -10 -6 0 -11 5 -11 10 0 6 2 10 4 10 3 0 8 -4 11 -10z m-90 -101 c33
-17 62 -33 64 -35 2 -2 -7 -20 -20 -39 -24 -36 -102 -95 -125 -95 -33 0 -51
93 -34 174 11 56 12 57 33 42 12 -9 49 -30 82 -47z m211 -73 c3 -8 -5 -34 -17
-58 -19 -38 -23 -41 -30 -23 -4 11 -8 37 -8 58 -1 33 2 37 24 37 14 0 28 -6
31 -14z m153 -12 c21 -4 22 -9 16 -42 -4 -20 -15 -51 -26 -68 -10 -17 -16 -34
-13 -37 14 -14 -7 -57 -32 -63 -44 -11 -83 43 -52 74 8 8 9 18 1 35 -6 14 -14
45 -18 70 l-7 46 53 -5 c30 -3 65 -7 78 -10z m-366 -172 c22 -19 22 -70 0 -94
-9 -10 -30 -18 -48 -18 -77 0 -93 103 -20 130 23 8 43 3 68 -18z m152 -102 c4
-6 -10 -10 -35 -10 -25 0 -39 4 -35 10 3 6 19 10 35 10 16 0 32 -4 35 -10z
m160 -42 c3 -7 32 -182 64 -388 48 -300 57 -378 47 -388 -9 -9 -93 -15 -322
-20 -170 -5 -315 -6 -321 -4 -17 6 -20 25 -48 397 -14 182 -27 342 -30 357 -2
14 2 31 8 37 25 20 595 29 602 9z m-661 -59 c51 -40 19 -129 -46 -129 -31 0
-78 39 -78 64 0 27 22 64 44 74 32 16 51 14 80 -9z"/>
<path d="M1503 1108 c-9 -16 -4 -70 8 -82 5 -6 9 10 9 42 0 54 -3 61 -17 40z"/>
<path d="M1391 990 c0 -25 4 -52 9 -60 8 -12 10 -12 9 5 0 11 -4 38 -8 60 l-9
40 -1 -45z"/>
<path d="M1182 960 c0 -19 2 -27 5 -17 2 9 2 25 0 35 -3 9 -5 1 -5 -18z"/>
<path d="M1062 2165 c0 -16 2 -22 5 -12 2 9 2 23 0 30 -3 6 -5 -1 -5 -18z"/>
<path d="M1062 1990 c0 -19 2 -27 5 -17 2 9 2 25 0 35 -3 9 -5 1 -5 -18z"/>
<path d="M3212 2002 c-9 -6 -12 -34 -11 -100 2 -50 6 -89 11 -86 13 9 28 78
28 137 0 57 -4 64 -28 49z"/>
<path d="M3700 2002 c0 -7 -8 -12 -19 -12 -31 0 -43 -23 -25 -48 8 -12 19 -22
23 -22 9 0 33 82 25 89 -2 2 -4 -1 -4 -7z"/>
<path d="M2888 1828 c-16 -5 -28 -14 -28 -19 0 -11 88 -99 99 -99 4 0 4 21 0
48 -4 26 -8 55 -8 65 -1 19 -21 21 -63 5z"/>
<path d="M1040 1768 c-27 -48 -41 -111 -33 -150 7 -34 24 -35 58 -5 25 22 25
23 15 106 -5 46 -11 85 -13 87 -2 2 -14 -15 -27 -38z"/>
<path d="M2676 1705 c19 -29 29 -27 19 4 -3 12 -13 21 -21 21 -12 0 -12 -4 2
-25z"/>
<path d="M4060 1715 c-19 -23 -26 -279 -9 -357 12 -62 26 -71 62 -43 16 12 17
19 9 47 -26 82 -40 243 -27 303 4 19 1 37 -7 48 -13 18 -15 18 -28 2z"/>
<path d="M4507 1693 c-3 -16 -1 -42 5 -59 8 -24 7 -59 -6 -147 -9 -64 -19
-123 -22 -131 -7 -18 51 -52 61 -35 12 19 20 163 13 219 -4 30 -5 72 -2 92 4
25 0 44 -11 62 -22 33 -31 33 -38 -1z"/>
<path d="M2415 1670 c-13 -6 -15 -9 -5 -9 8 0 22 4 30 9 18 12 2 12 -25 0z"/>
<path d="M2502 1670 c-18 -4 -35 -10 -38 -13 -13 -13 75 -147 96 -147 5 0 4
15 -1 32 -5 18 -9 54 -9 80 0 26 -3 49 -7 51 -5 2 -23 1 -41 -3z"/>
<path d="M2345 1650 c-13 -5 -14 -9 -5 -9 8 0 24 4 35 9 13 5 14 9 5 9 -8 0
-24 -4 -35 -9z"/>
<path d="M2298 1633 c7 -3 16 -2 19 1 4 3 -2 6 -13 5 -11 0 -14 -3 -6 -6z"/>
<path d="M2180 1609 c-58 -14 -64 -17 -28 -13 48 5 146 32 118 32 -8 0 -49 -8
-90 -19z"/>
<path d="M2291 1601 c-10 -6 -8 -15 8 -42 l20 -33 -6 39 c-7 48 -6 46 -22 36z"/>
<path d="M2150 1578 c-75 -15 -73 -12 -41 -75 31 -62 80 -119 91 -106 15 17
38 90 45 141 l7 52 -29 -1 c-15 -1 -48 -5 -73 -11z"/>
<path d="M4380 1532 c-25 -19 -46 -27 -75 -27 -34 0 -40 -3 -43 -23 -2 -13 1
-29 8 -36 8 -10 5 -27 -10 -65 -25 -65 -25 -81 0 -81 16 0 20 -7 20 -35 0 -34
1 -35 39 -35 44 0 53 12 44 62 -4 30 -1 35 22 46 15 7 25 15 22 18 -3 3 1 21
9 39 10 24 11 36 3 41 -8 4 -9 26 -5 65 4 33 6 59 4 59 -2 0 -19 -13 -38 -28z"/>
<path d="M1915 1510 c9 -17 27 -35 40 -40 33 -13 32 -36 -2 -52 -19 -9 -27
-20 -25 -33 2 -11 4 -29 5 -39 1 -11 8 -21 15 -24 7 -2 11 2 10 8 -6 26 20 20
30 -7 6 -15 19 -39 30 -52 18 -22 22 -23 56 -11 42 13 41 12 20 51 -14 29 -17
30 -33 15 -24 -22 -36 -20 -55 9 -23 36 -20 55 13 66 16 6 32 17 35 24 6 17
-18 43 -51 56 -16 6 -23 16 -23 34 0 23 -4 25 -40 25 l-41 0 16 -30z"/>
<path d="M3662 1444 c-30 -21 -30 -59 0 -51 27 7 48 -8 48 -35 0 -15 5 -18 20
-13 21 7 28 -9 9 -21 -8 -4 -9 -28 -5 -70 7 -69 -1 -78 -45 -51 -17 10 -22 9
-39 -13 -36 -45 -45 -93 -29 -152 13 -51 16 -53 50 -56 60 -5 90 29 98 109 6
61 7 64 34 67 26 3 27 2 27 -42 0 -24 -4 -56 -10 -70 -8 -23 -7 -26 13 -26 26
0 70 36 62 51 -12 18 6 47 35 59 34 14 44 38 35 80 -7 33 -57 80 -85 80 -21 0
-28 7 -90 88 -40 53 -75 82 -98 82 -4 0 -18 -7 -30 -16z"/>
<path d="M2400 1381 c0 -5 9 -30 20 -56 18 -42 19 -54 9 -109 -12 -71 -33
-110 -105 -194 -64 -75 -89 -135 -80 -194 13 -89 68 -138 153 -138 l39 0 24
-122 25 -123 75 2 c94 3 120 9 120 30 0 9 -16 69 -35 134 -19 65 -35 121 -35
124 0 2 14 12 31 20 57 30 74 128 32 192 -8 12 -15 44 -15 70 0 70 -27 165
-45 159 -8 -4 -19 -6 -23 -6 -5 0 -10 -19 -12 -42 -3 -38 -6 -43 -30 -46 -26
-3 -27 -2 -16 30 23 72 22 83 -9 97 -25 12 -26 14 -10 25 9 7 17 17 17 23 0 5
16 15 35 22 19 7 35 17 35 22 0 20 -41 49 -70 49 -16 0 -52 9 -80 20 -27 11
-50 16 -50 11z m118 -343 c2 -20 -8 -37 -42 -70 -54 -54 -66 -90 -40 -119 15
-17 26 -20 55 -15 26 4 40 1 49 -9 15 -18 15 -18 -25 -34 -26 -10 -38 -9 -70
5 -80 33 -93 67 -54 148 25 54 93 130 111 124 7 -3 14 -16 16 -30z"/>
<path d="M3120 1188 c0 -35 -4 -68 -10 -74 -5 -5 -11 -63 -12 -129 l-3 -120
-65 -2 c-74 -3 -223 -21 -245 -29 -8 -4 -15 -16 -15 -29 0 -19 8 -25 49 -35
26 -6 104 -14 172 -18 l124 -7 3 -307 c2 -289 1 -308 -15 -308 -10 0 -36 -9
-58 -19 l-40 -19 125 -1 c111 0 123 1 106 14 -11 8 -34 18 -52 21 l-33 6 2
307 2 306 115 6 c147 8 207 18 226 36 38 38 -23 61 -190 71 l-121 7 -3 119
c-1 66 -7 126 -13 133 -6 7 -9 38 -7 70 3 54 1 58 -19 61 -22 3 -23 0 -23 -60z"/>
<path d="M1853 1133 c-27 -10 -7 -63 23 -63 7 0 17 13 22 29 8 24 7 31 -5 35
-17 7 -23 7 -40 -1z"/>
<path d="M3481 1081 c-12 -8 -13 -14 -3 -36 13 -29 38 -31 55 -4 22 35 -15 63
-52 40z"/>
<path d="M4470 1005 c0 -40 4 -55 14 -55 37 0 53 73 20 97 -29 21 -34 16 -34
-42z"/>
<path d="M4595 1040 c-24 -27 -13 -68 22 -76 20 -5 31 -2 45 16 23 28 23 35
-2 60 -25 25 -42 25 -65 0z"/>
<path d="M2969 1003 c-5 -32 13 -73 32 -73 12 0 41 59 34 70 -7 12 -64 14 -66
3z"/>
<path d="M3236 1001 c-7 -11 9 -56 21 -64 5 -3 14 -3 20 1 15 9 34 58 26 66
-10 9 -61 7 -67 -3z"/>
<path d="M1880 985 c0 -8 4 -15 10 -15 5 0 7 7 4 15 -4 8 -8 15 -10 15 -2 0
-4 -7 -4 -15z"/>
<path d="M3740 944 c-19 -7 -45 -11 -58 -8 -20 4 -23 1 -20 -18 3 -26 37 -34
95 -23 29 5 33 10 33 35 0 33 0 33 -50 14z"/>
<path d="M4470 847 c0 -23 4 -36 10 -32 13 8 13 35 0 55 -7 11 -10 5 -10 -23z"/>
<path d="M4030 845 c-18 -22 -1 -50 31 -50 20 0 24 5 24 30 0 23 -5 31 -21 33
-11 2 -27 -4 -34 -13z"/>
<path d="M4166 844 c-19 -18 -21 -65 -4 -82 16 -16 65 -15 72 1 10 21 -4 -423
-17 -540 -7 -62 -15 -115 -18 -117 -3 -3 -34 -18 -69 -35 l-65 -30 85 2 85 2
0 36 c0 20 5 42 12 50 28 34 97 292 131 484 l8 50 28 -90 c47 -152 64 -175
127 -175 59 0 219 107 219 146 0 25 31 32 84 18 61 -16 56 -16 56 -6 0 4 -23
27 -51 51 l-52 45 -21 -27 c-34 -43 -147 -117 -178 -117 -34 0 -53 28 -63 90
-4 25 -18 80 -31 122 l-25 78 -127 -3 -127 -2 -3 33 c-4 36 -29 44 -56 16z"/>
<path d="M1913 721 c-16 -65 31 -579 56 -604 21 -21 29 8 40 148 16 193 32
309 42 293 5 -7 9 -33 9 -58 0 -26 5 -51 10 -56 6 -6 21 -80 33 -165 l22 -154
29 -3 29 -4 -5 156 -5 156 88 0 c72 0 88 3 93 17 8 20 10 173 2 180 -3 3 -20
8 -38 12 -24 5 -34 13 -36 29 -2 16 -10 22 -28 22 -13 0 -24 -4 -24 -10 0 -5
7 -10 16 -10 9 0 14 -6 12 -12 -6 -17 -72 -22 -95 -9 -17 10 -16 11 5 17 33 9
27 27 -7 19 -26 -6 -29 -3 -35 28 l-6 33 -100 0 c-99 0 -101 0 -107 -25z m327
-196 c0 -21 -5 -25 -30 -25 -25 0 -30 4 -30 25 0 21 5 25 30 25 25 0 30 -4 30
-25z"/>
<path d="M2456 141 c-8 -13 4 -92 17 -108 5 -7 17 -13 26 -13 14 1 14 2 -2 15
-12 9 -20 30 -23 61 -4 50 -8 61 -18 45z"/>
<path d="M2520 98 c0 -17 5 -28 13 -28 8 0 19 -11 25 -25 7 -14 20 -25 31 -25
19 0 19 1 -2 23 -12 12 -32 36 -44 52 l-22 30 -1 -27z"/>
<path d="M3680 76 c-39 -26 -68 -56 -53 -56 5 0 20 12 34 26 14 15 31 23 41
21 13 -4 18 1 18 14 0 23 3 23 -40 -5z"/>
<path d="M3770 74 c-47 -34 -67 -54 -53 -54 7 0 24 11 39 25 15 14 33 25 40
25 8 0 14 7 14 15 0 18 3 19 -40 -11z"/>
<path d="M1983 73 c-16 -6 -17 -59 -2 -68 16 -11 79 4 79 19 0 15 -42 56 -56
55 -5 0 -15 -3 -21 -6z"/>
<path d="M2141 66 c-7 -8 -11 -23 -9 -33 3 -15 15 -19 71 -21 74 -3 83 5 38
37 -41 29 -84 37 -100 17z"/>
</g>
</svg>
