<svg xmlns="http://www.w3.org/2000/svg" version="1.1" xmlns:xlink="http://www.w3.org/1999/xlink" xmlns:svgjs="http://svgjs.dev/svgjs" width="1440" height="560" preserveAspectRatio="none" viewBox="0 0 1440 560"><g mask="url(&quot;#SvgjsMask1002&quot;)" fill="none"><rect width="1440" height="560" x="0" y="0" fill="url(&quot;#SvgjsLinearGradient1003&quot;)"></rect><path d="M1488 560L0 560 L0 352.19Q26.49 306.69, 72 333.18Q147.96 289.14, 192 365.1Q244.27 345.38, 264 397.65Q318.57 332.22, 384 386.79Q427 309.79, 504 352.79Q558.46 287.25, 624 341.71Q707.88 305.6, 744 389.48Q789.31 314.79, 864 360.1Q907.46 331.56, 936 375.03Q1005.37 324.4, 1056 393.77Q1073.12 338.88, 1128 356Q1166.94 274.94, 1248 313.88Q1323.2 269.08, 1368 344.28Q1440.23 296.51, 1488 368.74z" fill="#182f5d"></path><path d="M1512 560L0 560 L0 411.17Q36.42 375.59, 72 412.01Q141.22 361.23, 192 430.44Q212.31 378.75, 264 399.06Q305.17 368.23, 336 409.4Q358.6 360, 408 382.6Q452 354.6, 480 398.6Q565.84 364.44, 600 450.28Q603.39 381.67, 672 385.07Q738.84 379.91, 744 446.75Q774.9 405.65, 816 436.55Q842.88 391.44, 888 418.32Q913.38 371.7, 960 397.08Q1001.37 366.44, 1032 407.81Q1111.44 367.25, 1152 446.69Q1183.07 357.75, 1272 388.82Q1347.68 344.5, 1392 420.18Q1443.05 351.23, 1512 402.28z" fill="#25467d"></path><path d="M1488 560L0 560 L0 508.89Q21.69 458.58, 72 480.28Q95.77 432.05, 144 455.83Q201.11 440.94, 216 498.05Q288.48 450.53, 336 523.02Q349.92 464.94, 408 478.85Q423.14 422, 480 437.14Q545.74 382.88, 600 448.61Q666.41 395.02, 720 461.44Q795.43 416.87, 840 492.3Q883.68 463.98, 912 507.66Q919.14 442.8, 984 449.94Q1026.98 420.92, 1056 463.9Q1109.91 445.81, 1128 499.73Q1161.18 412.92, 1248 446.1Q1319.13 397.24, 1368 468.37Q1451.77 432.14, 1488 515.91z" fill="#356cb1"></path><path d="M1560 560L0 560 L0 519.62Q58.29 505.91, 72 564.21Q115.56 535.77, 144 579.33Q158.59 521.92, 216 536.52Q282.55 483.07, 336 549.62Q378.82 472.44, 456 515.27Q500.06 487.33, 528 531.38Q590.24 521.62, 600 583.85Q618.99 530.84, 672 549.82Q684.49 490.31, 744 502.79Q790.3 477.09, 816 523.38Q890.41 477.79, 936 552.19Q981.03 525.22, 1008 570.25Q1051.95 494.2, 1128 538.16Q1181.68 471.84, 1248 525.52Q1329.23 486.75, 1368 567.98Q1388.59 516.57, 1440 537.15Q1480.84 457.99, 1560 498.82z" fill="white"></path></g><defs><mask id="SvgjsMask1002"><rect width="1440" height="560" fill="#ffffff"></rect></mask><linearGradient x1="50%" y1="0%" x2="50%" y2="100%" gradientUnits="userSpaceOnUse" id="SvgjsLinearGradient1003"><stop stop-color="#0e2a47" offset="0"></stop><stop stop-color="#00459e" offset="1"></stop></linearGradient></defs></svg>