<svg xmlns="http://www.w3.org/2000/svg" version="1.1" xmlns:xlink="http://www.w3.org/1999/xlink" xmlns:svgjs="http://svgjs.dev/svgjs" width="1440" height="400" preserveAspectRatio="none" viewBox="0 0 1440 400"><g mask="url(&quot;#SvgjsMask1710&quot;)" fill="none"><rect width="1440" height="400" x="0" y="0" fill="url(&quot;#SvgjsLinearGradient1711&quot;)"></rect><path d="M1488 400L0 400 L0 143.79Q45.11 116.9, 72 162.01Q139.97 109.97, 192 177.94Q208.12 122.06, 264 138.18Q335.07 89.25, 384 160.32Q458.52 114.84, 504 189.36Q519.74 85.09, 624 100.83Q694.61 51.44, 744 122.04Q824.75 82.79, 864 163.54Q934.8 114.34, 984 185.14Q994.23 123.37, 1056 133.59Q1104.3 61.89, 1176 110.18Q1273.34 87.51, 1296 184.85Q1317.36 134.2, 1368 155.56Q1397.8 65.36, 1488 95.15z" fill="#182f5d"></path><path d="M1512 400L0 400 L0 255.67Q-5.28 178.38, 72 173.1Q169.83 150.93, 192 248.75Q261.31 198.06, 312 267.37Q320.39 155.76, 432 164.16Q500.47 112.63, 552 181.11Q612.93 170.04, 624 230.97Q664.9 151.88, 744 192.78Q790.71 167.49, 816 214.19Q901.06 179.25, 936 264.31Q954.85 211.16, 1008 230.01Q1054.58 204.59, 1080 251.17Q1093.03 192.19, 1152 205.22Q1217.29 150.51, 1272 215.8Q1346.49 170.3, 1392 244.79Q1462.61 195.39, 1512 266z" fill="#25467d"></path><path d="M1464 400L0 400 L0 277.2Q86.2 243.4, 120 329.61Q167.06 304.67, 192 351.73Q208.36 296.09, 264 312.44Q300.47 228.91, 384 265.39Q409.13 218.52, 456 243.65Q550.71 218.36, 576 313.06Q595.88 260.94, 648 280.81Q669.42 230.24, 720 251.66Q750.65 210.31, 792 240.96Q857.06 234.02, 864 299.09Q945.19 260.28, 984 341.48Q1030.07 267.55, 1104 313.62Q1136.03 225.64, 1224 257.67Q1278.67 192.35, 1344 247.02Q1455.91 238.93, 1464 350.84z" fill="#356cb1"></path><path d="M1488 400L0 400 L0 352.17Q34.27 314.44, 72 348.71Q153.39 310.1, 192 391.48Q223.34 302.82, 312 334.16Q394.05 296.21, 432 378.25Q462.1 336.35, 504 366.45Q522.55 313, 576 331.55Q647.53 283.08, 696 354.6Q738.99 325.59, 768 368.57Q815.56 296.13, 888 343.68Q974.86 310.53, 1008 397.39Q1050.45 367.84, 1080 410.29Q1123.95 382.25, 1152 426.2Q1157.14 359.34, 1224 364.48Q1238.78 307.26, 1296 322.05Q1371.94 278, 1416 353.94Q1481.42 347.37, 1488 412.79z" fill="white"></path></g><defs><mask id="SvgjsMask1710"><rect width="1440" height="400" fill="#ffffff"></rect></mask><linearGradient x1="50%" y1="0%" x2="50%" y2="100%" gradientUnits="userSpaceOnUse" id="SvgjsLinearGradient1711"><stop stop-color="#0e2a47" offset="0"></stop><stop stop-color="#00459e" offset="1"></stop></linearGradient></defs></svg>